<?xml version="1.0" encoding="utf-8"?>
<!-- Generator: Adobe Illustrator 19.0.0, SVG Export Plug-In . SVG Version: 6.00 Build 0)  -->
<svg version="1.1" id="图层_1" xmlns="http://www.w3.org/2000/svg" xmlns:xlink="http://www.w3.org/1999/xlink" x="0px" y="0px"
	 viewBox="-11 20.6 275.3 141.4" style="enable-background:new -11 20.6 275.3 141.4;" xml:space="preserve">
<style type="text/css">
	.st0{fill:#FD4C40;}
</style>
<title>coupert_logo</title>
<path class="st0" d="M254.3,34.7v8.9h-1.7v-8.9h-1.7v-1.6h5.2v1.6H254.3z M262.6,43.6v-6.3l-1.3,4.1h-1l-1.3-4v6.2h-1.7V33.1h1.5
	l2,5.4l2-5.4h1.5v10.5H262.6L262.6,43.6z"/>
<path class="st0" d="M90.9,138c-12.6,3.2-47,20.5-70.2,5.8c-29.4-18.5-29.5-72.7,7.4-106c9-8.1,19.5-12.5,30.7-12.7
	c9.6-0.1,17.9,5,20.2,14.6c2.1,9-1.3,18.8-7.3,25.6c-2.7,2.8-5.7,5.1-9.1,7c-1.2,0.7-2.5,1.4-3.9,1.8c-5,1.9-9.8,1.7-11.5-4
	c-2-7.1,2.7-14.7,9.4-17.3c2.3-0.9,10.4-3.6,7.3-4.3c-8.1-1.9-21,4.9-24.1,15.2c-3,10.1,3.9,16.7,14,15.5c5.1-0.7,10-2.4,14.4-5
	c14.1-6.1,28.9-10.4,44-12.8c2.3-0.4,4-4.7,1.1-4.3c-10.7,1.7-21.3,4.2-31.7,7.6c-0.5,0.2-1.1-0.1-1.3-0.6c-0.1-0.3,0-0.6,0.1-0.9
	c1.3-1.7,2.4-3.6,3.3-5.5c4.5-9.1,5.3-21-1.6-29.1c-8-9.4-22.5-9.1-33.3-6.1c-14.1,4-27.3,12.7-37.3,23.6
	c-21.3,23.4-32.8,66.1-10.6,92.6c9.4,11.2,22.8,16.3,37.3,17.3c18.9,1.4,42.7-11.2,49.5-14.5C92.1,139.4,95.5,136.9,90.9,138z"/>
<path class="st0" d="M64.5,99.5c1.9-0.6,5.7-1.3,7.4-2.2c0.5-0.3,1.1-0.1,1.4,0.4c0.1,0.2,0.2,0.5,0.1,0.8
	c-5,14.9-7.6,33.4,10.8,28.5c3.7-1,7-2.9,9.7-5.5c0.4-0.4,1-0.3,1.4,0.1l0.1,0.1c1.3,1.9,3.7,2.9,6,2.4c4.3-0.6,8.7-6.9,11.3-12.3
	c0.1-0.2,0.4-0.3,0.7-0.2c0.2,0.1,0.3,0.3,0.2,0.5c-1.2,6-2.9,14-4.1,19.3c-0.3,1.2-1.1,2.1-2.2,2.6c-8.7,3.9-17.4,12.2-14.5,22.5
	c1,3.8,4.8,6.1,8.6,5.3c5.2-1.2,7.8-6,9.7-10.6c1.9-4.9,3.5-9.9,4.9-14.9c0.3-1,1.1-1.9,2.1-2.1c3.5-0.9,6.9-1.6,9.9-2.3
	c18.7-4.3,37.8-6.3,57-5.7c21.6,0.6,34.8,5.1,47.4,11.8c7,3.7,12,0.3,8-3.9c-8.8-9.3-43.4-15.1-82.2-11.3
	c-13.2,1.2-26.3,3.7-39.1,7.3c-0.5,0.1-1.1-0.2-1.2-0.7c0-0.2,0-0.3,0-0.5c0.8-3.3,1.5-6.7,2.1-10c0.1-0.5,0.6-0.9,1.2-0.8h0.1
	c2.5,0.8,6.6,0,8.7-0.8c3.3-1.4,6.2-3.5,8.5-6.2c0.9-1.1,1.8-2.3,2.6-3.5c0.3-0.5,0.8-0.9,1.3-1.2l4.1-2.1l3.8-2
	c0.5-0.3,1.1-0.1,1.4,0.4c0.1,0.1,0.1,0.2,0.1,0.4c0,0.2,0.1,0.5,0.1,0.7c3,13.9,19.4,11.1,26.3,1.3s9.4-20.3,11.9-29.9
	c0.3-1.1,1.4-1.7,2.5-1.4c0.1,0,0.2,0.1,0.3,0.1c1.8,0.8,3.8,1.3,5.8,1.5c1.1,0.1,1.9,1.1,1.8,2.2c0,0.2-0.1,0.4-0.2,0.6
	c-3.4,7.2-5.6,14.9-6.4,22.8c-0.3,2.7-0.7,6.8,1.5,9c2.6,2.5,7.3,1,10-0.3c3.8-1.9,7.2-7.7,9.9-13.4c0.2-0.4,0.7-0.6,1.2-0.4
	c0.3,0.2,0.5,0.5,0.5,0.9c-0.1,1-0.2,1.8-0.2,2c-0.2,5.3-0.5,13.9,5.8,15.9c10.2,3.2,16.6-9,18.5-13.3s0-1.7-3.7,3
	c-1.8,2.3-6.8,6.9-9.6,6.3c-1.6-0.3-2.3-3.2-2.6-4.4c-1.7-6.8-0.3-14.6,0.8-21.4c1.4-8.4,3.3-16.8,5.6-25c0.5-1.6,2.1-2.5,3.7-2h0.1
	c4.2,1.4,8.1,3.3,11.8,5.7c8.8,5.7,12.4-1.2,6.2-4.5c-5.2-2.7-10.7-4.9-16.4-6.4c-1.6-0.4-2.5-2.1-2.1-3.7v-0.1
	c1.2-3.5,2.4-7,3.8-10.5l0.1-0.2c0.8-2.1,1.7-4.2,2.6-6.3c1.6-3.9-5.8-3.9-7.7,1c-2,5.1-4,10.2-5.9,15.3c-0.5,1.4-1.9,2.2-3.3,2
	c-6.4-0.9-12.9-1.5-19.4-1.7c-21.7-0.8-44.7,1.8-66.1,4.9c-2.1,0.3-2.8,4.5,0,4.1c20.3-2.9,40.9-5.2,61.4-4.6
	c7.1,0.1,14.3,0.8,21.3,1.9c1.6,0.3,2.7,1.8,2.5,3.4c0,0.2-0.1,0.3-0.1,0.5l-2.5,7.3c-4.1,11.9-12.8,41.7-19.8,41.4
	c-3.1-0.1,0.8-20.3,9.2-35.3c1.6-2.9-4-2.2-5.1-1.7c-4.5,2.2-11.6,0.7-8.4-5.6c1.6-3.3-6.4-2.5-7.2-0.2
	c-4.8,13.4-5.7,26.5-14.1,37.6c-2.9,3.8-7.5,8.6-12.6,5.6c-1.8-1.1-3-2.9-3.5-4.9c-0.4-1.4-0.6-2.8-0.7-4.2c-0.1-0.8,0.3-1.5,1-1.9
	c4-2.3,7.7-4.9,11.3-7.8c4.6-3.7,16.5-16.8,9-22.4c-3.6-2.7-9.6-0.7-13.1,1c-4,2.1-7.4,5.3-9.7,9.2c-3.7,6.1-5.9,13-6.5,20.1
	c0,0.7-0.5,1.3-1.1,1.7c-1,0.5-2.2,1-3.2,1.5c-0.5,0.2-1.1-0.1-1.3-0.6c-0.1-0.2-0.1-0.5,0-0.7c1.5-3.6,2.7-7.3,3.6-11.1
	c1.2-5.8,3.1-16.9-3.4-20.4c-3.8-2-9.2-0.9-12.9,0.7c-0.7,0.3-1.3,0.6-1.9,1c-0.5,0.3-1.2,0.2-1.5-0.3c-0.2-0.3-0.2-0.6-0.1-0.9
	c1.1-3.7,2-7.5,2.6-11.3c0.4-2.5,0.6-6.3-1.8-7.8c-2.2-1.4-6-0.6-7.9,1c-2.1,1.8-1.4,4.9-1.6,7.4c-0.6,7-1.8,13.9-3,20.7
	c-1.8,10.3-2.7,18-5.6,26.2c-1.3,3.5-6.2,15.3-9.4,15.4c-1.2,0-1.4-4.7-1.5-7.3c0-0.9,0.1-1.7,0.5-2.5c4-9.7,4.1-19.6,4.5-28.6
	c0.2-4.4-6.6-3.1-7.7,0.7c-1.2,4-5.5,17.9-5.5,29.2c0,1-0.2,1.9-0.6,2.8c-1.8,3.7-4.3,7-7.7,8.7c-8,3.9-7.8-8.3-7.1-12.9
	c1.5-9.1,4.7-17.9,9.3-25.9c1.8-3.3-5.9-2.1-7.2-0.2c-2.8,4.2-6.4,7.7-10.7,10.4c-1.7,1-3.6,1.6-5.5,1.8c-1,0.3-2.1-0.2-2.5-1.1
	c-0.5-1.3-1.3-2.4-2.3-3.3c-1.8-1.4-5.6-1.4-8,0c0,0-2.2,1.1-2.2,3.2c0,2.8,1.8,4.4,4.3,5.2c1,0.3,1.8,1.2,2,2.2
	c0.3,1.4,0.6,2.9,0.8,4.3c0.9,6.2,0.8,13.3-2.1,19.1c-1.2,2.5-3.2,5.1-6,5.9c-4.6,1.3-8-3.3-9.4-7.1c-3.5-9.2-1-23.5,7.1-29.8
	c1.7-1.3,3.4-2.6,5.2-3.7c1.5-0.9-2.1-2.2-4.8-1.1c-14.6,5.5-21.7,26.4-13.6,39.8c6,10,20.5,7.2,26.9-1c5.6-7.1,5.8-17.7,4.1-26.4
	C62.8,100.8,63.4,99.8,64.5,99.5L64.5,99.5L64.5,99.5z M107,141.1c-0.2,1-4.1,15.1-5.7,15.3s-1-10.4,2.7-14.9c1-1.2,1.8-2.1,2.4-2.7
	c0.2-0.2,0.6-0.2,0.9,0c0.1,0.2,0.2,0.4,0.1,0.6C107.2,140.1,107,140.7,107,141.1z M122,112.9c-0.2,0.2-0.5,0.1-0.7-0.1
	c-0.1-0.1-0.1-0.2-0.1-0.4c0.8-4.7,1.6-9.4,2.4-14s1.5-9.4,2.4-14c0.3-1.7,0.9-3.2,1.8-4.7c2.7-4.2,7.1-10.2,11.3-8.9
	c2.5,0.8,3.2,4.1,3.5,6.3c1.1,8.3-2,17.9-5.6,25.3c-0.3,0.7-0.7,1.3-1,2c-0.4,0.7-1,1.2-1.6,1.6c-2.3,1.2-4.6,2.4-6.8,3.7
	C125.5,110.6,123.7,111.7,122,112.9L122,112.9z M166.6,74.9c1.3-1.6,3.3-4,5.4-4.6c3.6-0.9,3.1,3,2.4,5.5
	c-2.1,6.5-7.2,12.2-12.8,16.2c-0.4,0.3-1.1,0.2-1.4-0.2c-0.2-0.2-0.2-0.5-0.2-0.8c0.1-0.7,0.2-1.4,0.3-1.9
	C161.3,83.9,163.5,79.1,166.6,74.9L166.6,74.9z"/>
</svg>
